<?xml version="1.0" standalone="no"?><!DOCTYPE svg PUBLIC "-//W3C//DTD SVG 1.1//EN" "http://www.w3.org/Graphics/SVG/1.1/DTD/svg11.dtd"><svg t="1599394518345" class="icon" viewBox="0 0 1024 1024" version="1.1" xmlns="http://www.w3.org/2000/svg" p-id="5890" xmlns:xlink="http://www.w3.org/1999/xlink" width="128" height="128"><defs><style type="text/css"></style></defs><path d="M104.6272 780.09344c-11.01824 0.09728-19.85536 9.08288-19.80416 20.10624 0.0512 11.01312 9.03168 19.91168 20.0448 19.91168 0.01024 0 0.02048 0 0.02048 0 0.3072 0 25.89184 0.12288 61.96224 12.20096 48.16896 16.128 91.29472 44.78976 128.17408 85.20192 3.94752 4.32128 9.35424 6.51776 14.78144 6.51776 4.8128 0 9.64608-1.73056 13.48096-5.22752 8.16128-7.4496 8.73984-20.10624 1.29024-28.26752C224.0256 780.3648 109.52704 780.1088 104.6272 780.09344z" p-id="5891" fill="#9B9B9B"></path><path d="M888.95488 781.66016c-8.24832-0.55296-145.11616-7.9872-253.90592 108.71808-7.53152 8.07936-7.0912 20.74112 0.99328 28.27264 3.85536 3.59424 8.7552 5.376 13.63456 5.376 5.36064 0 10.7008-2.14016 14.63808-6.36928 40.73984-43.6992 90.4704-73.15456 147.80928-87.53664 42.5984-10.68544 72.832-8.63744 74.10688-8.54016 0.4864 0.03584 0.98304 0.05632 1.47456 0.05632 11.04896 0 20.00896-8.96 20.00896-20.00896C907.71968 790.99904 899.42528 782.30528 888.95488 781.66016z" p-id="5892" fill="#9B9B9B"></path><path d="M939.1104 537.75872c-27.65824-67.51744-89.35936-129.32608-138.09152-174.62784 47.28832-30.35136 81.792-71.26528 102.72768-121.9584 3.34848-8.09472 1.03936-17.41824-5.68832-23.01952-58.89024-49.00864-142.42816-91.136-235.2384-118.62016-96.84992-28.68224-194.16064-37.95456-273.98144-26.10688-86.08256 12.7744-151.87968 49.93024-190.40256 107.49952-0.6656 0.80896-1.3056 1.6896-1.89952 2.64192-4.95104 7.89504-19.56864 39.8592-21.2224 43.47904-3.1232 6.85056-7.56736 16.73728-10.97216 24.89344-1.59232 3.80416-2.74944 6.75328-3.55328 9.01632-0.7424 2.08896-1.24416 4.03968-1.54112 5.8624-6.9376 26.73152-8.50944 54.44608-4.82304 82.62656-0.24576 1.28512-0.37376 2.62144-0.3584 3.98336 0.03584 3.40992 1.31584 84.84864 40.68864 199.64928 23.03488 67.15904 54.44608 131.9424 93.35808 192.5376 48.59392 75.68896 109.08672 145.01888 179.7888 206.05952 3.77856 3.27168 8.43264 4.864 13.06624 4.864 5.61664 0 11.19744-2.35008 15.1552-6.93248 7.2192-8.36608 6.29248-21.00224-2.06848-28.22144-67.48672-58.27072-125.24032-124.35968-171.648-196.4288-37.1456-57.68704-67.16928-119.34208-89.23648-183.2448-5.49888-15.91808-10.27584-31.4112-14.42304-46.26944 103.24992 137.73824 299.98592 238.14144 438.61504 257.3824 0.9216 0.12288 1.83808 0.18944 2.74944 0.18944 6.76864 0 13.1584-3.43552 16.8704-9.25184 35.99872-56.448 48.60928-116.0192 36.23936-159.17568 125.22496 6.4512 209.4336-18.94912 213.27872-20.14208 5.37088-1.64864 9.79456-5.48864 12.19584-10.56768S941.24032 542.96064 939.1104 537.75872z" p-id="5893" fill="#9B9B9B"></path></svg>