<?xml version="1.0" standalone="no"?><!DOCTYPE svg PUBLIC "-//W3C//DTD SVG 1.1//EN" "http://www.w3.org/Graphics/SVG/1.1/DTD/svg11.dtd"><svg t="1599281904052" class="icon" viewBox="0 0 1024 1024" version="1.1" xmlns="http://www.w3.org/2000/svg" p-id="1627" xmlns:xlink="http://www.w3.org/1999/xlink" width="128" height="128"><defs><style type="text/css"></style></defs><path d="M512 82.574132C274.478804 82.574132 81.850427 275.202509 81.850427 512.723705c0 237.523629 192.628377 430.152006 430.149573 430.152006 237.522413 0 430.149573-192.628377 430.149573-430.152006 0.001216-237.521196-192.625944-430.149573-430.149573-430.149573m-2.765891 731.153685c-35.006645 0-63.488997-27.882712-63.488997-62.198491 0-34.310915 28.381399-62.198491 63.488997-62.198492 35.000563 0 63.482916 27.887577 63.482916 62.198492 0 34.31578-28.381399 62.198491-63.482916 62.198491m170.47449-351.927401c-12.45624 19.578957-38.863566 46.177244-79.40321 79.898248-20.964335 17.40176-34.015351 31.441637-39.059392 42.124496-5.041609 10.578256-7.417064 29.569735-6.924459 56.95984h-90.376766c-0.198259-12.956144-0.395301-20.869463-0.395301-23.737524 0-29.26809 4.84335-53.293879 14.533699-72.183188 9.689133-18.888092 29.071047-40.147991 58.047222-63.68239 28.973742-23.634137 46.375503-39.059393 52.015537-46.375503 8.700272-11.568333 13.147105-24.325002 13.147105-38.172702 0-19.280961-7.806283-35.792381-23.235188-49.635216-15.425255-13.746746-36.390806-20.669988-62.593793-20.669988-25.315079 0-46.478889 7.218805-63.485348 21.559111-17.008892 14.334224-31.643545 45.980202-35.106382 65.559159-3.263362 18.492791-92.356921 26.305156-91.270755-11.173032s20.57025-78.118785 53.990825-107.585134c33.426657-29.467565 77.330616-44.204388 131.617005-44.204387 57.159315 0 102.545957 14.933865 136.36305 44.793082 33.818309 29.862866 50.631375 64.573947 50.631374 104.224466 0.093656 21.951979-6.133856 42.720488-18.495223 62.300662m0 0" p-id="1628" fill="#6979F8"></path></svg>
