<?xml version="1.0" standalone="no"?><!DOCTYPE svg PUBLIC "-//W3C//DTD SVG 1.1//EN" "http://www.w3.org/Graphics/SVG/1.1/DTD/svg11.dtd"><svg t="1604111041873" class="icon" viewBox="0 0 1365 1024" version="1.1" xmlns="http://www.w3.org/2000/svg" p-id="5072" xmlns:xlink="http://www.w3.org/1999/xlink" width="21.328125" height="16"><defs><style type="text/css"></style></defs><path d="M1283.185778 161.564444h-245.76c-78.848 0-109.795556-161.564444-191.146667-161.564444H491.52c-54.613333 0-81.976889 161.564444-163.783111 161.564444H81.92C36.807111 161.564444 0 197.916444 0 242.574222v700.586667C0 987.761778 36.750222 1024 81.92 1024h1201.493333c45.169778 0 81.92-36.238222 81.92-80.896V242.460444a81.635556 81.635556 0 0 0-82.147555-80.839111zM682.552889 889.287111c-181.020444 0-327.68-144.668444-327.68-323.356444 0-178.631111 146.659556-323.356444 327.68-323.356445 181.077333 0 327.68 144.668444 327.68 323.356445 0 178.460444-146.773333 323.356444-327.68 323.356444z m395.946667-565.873778a40.618667 40.618667 0 0 1-40.846223-40.334222c0-22.414222 18.375111-40.391111 40.903111-40.391111 22.698667 0 40.903111 18.204444 40.903112 40.391111 0 22.186667-18.375111 40.391111-40.96 40.391111zM273.009778 80.896a27.192889 27.192889 0 0 0-27.420445-27.022222h-81.92a27.192889 27.192889 0 0 0-27.420444 27.022222v27.022222h136.533333c0.170667-0.170667 0.170667-12.288 0.170667-27.022222z m409.6 242.460444c-135.623111 0-245.703111 108.657778-245.703111 242.517334 0 133.859556 110.08 242.460444 245.76 242.460444 135.623111 0 245.703111-108.600889 245.703111-242.460444 0-134.030222-110.08-242.517333-245.76-242.517334z" p-id="5073" fill="#5C5F69"></path></svg>