<?xml version="1.0" standalone="no"?>
<!DOCTYPE svg PUBLIC "-//W3C//DTD SVG 1.1//EN" "http://www.w3.org/Graphics/SVG/1.1/DTD/svg11.dtd" >
<!--
2013-9-30: Created.
-->
<svg>
<metadata>
Created by iconfont
</metadata>
<defs>

<font id="iconfont" horiz-adv-x="1024" >
  <font-face
    font-family="iconfont"
    font-weight="500"
    font-stretch="normal"
    units-per-em="1024"
    ascent="896"
    descent="-128"
  />
    <missing-glyph />
    
    <glyph glyph-name="jifen" unicode="&#59291;" d="M423.59952147 519.1319412400001c115.05581117 0 234.72343892 25.3045408 306.5901813 73.55385829v-87.83774017h66.58117852V697.16938387c0 115.61854952-192.2092165 178.03854175-373.05925178 178.03854177S50.54026971 812.7879334 50.54026971 697.16938387v-524.89199208c0-115.61854952 192.2092165-178.03854175 373.05925176-178.03854177v66.4690705c-189.96046131 0-306.59018128 65.00726971-306.59018129 111.56947127V330.07164144c71.86784146-48.13720948 191.42226209-73.55495741 306.59018129-73.5549574v66.58117851c-189.96046131 0-306.59018128 65.00726971-306.59018129 111.56947127V592.5736915c71.86784146-48.13720948 191.53437012-73.44175028 306.59018129-73.44175026z m0 289.6069139c189.96046131 0 306.59018128-65.00726971 306.5901813-111.56947127s-116.62971998-111.56947127-306.5901813-111.56947126-306.59018128 65.00726971-306.59018129 111.56947126 116.7429271 111.56947127 306.59018129 111.56947127z m298.26780875-326.04751898c-165.21646067 0-251.59349915-63.54436983-251.59349914-126.30288435v-337.29349307c0-62.75851453 86.48804743-126.30288437 251.59349914-126.30288438 163.97997505 0 250.2427073 62.6453074 251.59240007 124.95319161h0.11320712v338.64318584c-0.11320712 62.75851453-86.48804743 126.30288437-251.70560719 126.30288435z m0-66.46907048c122.14059899 0 185.12332957-41.95038499 185.1233296-59.83381387 0-17.88232979-62.98273059-59.83271478-185.1233296-59.83271478s-185.12442866 41.95038499-185.12442866 59.83271478c0 17.88232979 62.98273059 59.83491298 185.12442866 59.83491296z m0-456.96112082c-122.14169809 0-185.12442866 41.95038499-185.12442866 59.83381388v80.52763717c42.17570014-22.9436776 104.14616117-38.23982902 185.12442866-38.23982902s142.8355214 15.29615143 185.1233296 38.23982902v-80.52763717c0-17.88232979-62.98273059-59.83491298-185.1233296-59.834913z m0 168.70280054c-122.14169809 0-185.12442866 41.95148408-185.12442866 59.83491297v80.5265381c42.17570014-22.9436776 104.14616117-38.23872994 185.12442866-38.23872993s142.8355214 15.29505233 185.1233296 38.23872993v-80.52763719c0-17.88232979-62.98273059-59.83381387-185.1233296-59.83381388z"  horiz-adv-x="1024" />

    
    <glyph glyph-name="tuichu" unicode="&#58901;" d="M918.893714 132.534857h-80.384a17.993143 17.993143 0 0 1-14.043428-6.582857 404.406857 404.406857 0 0 0-312.027429-146.505143 403.163429 403.163429 0 0 0-286.354286 118.491429 403.748571 403.748571 0 0 0-86.893714 128.585143A400.603429 400.603429 0 0 0 107.52 384 402.651429 402.651429 0 0 0 226.011429 669.988571a404.406857 404.406857 0 0 0 286.354285 118.564572 404.406857 404.406857 0 0 0 312.027429-146.505143c3.437714-4.242286 8.704-6.582857 14.043428-6.582857h80.310858c7.241143 0 11.702857 7.972571 7.68 14.043428A491.666286 491.666286 0 0 1 511.268571 875.446857 490.861714 490.861714 0 0 1 20.553143 378.88a491.739429 491.739429 0 0 1 491.885714-486.4 491.739429 491.739429 0 0 1 414.061714 226.011429 9.142857 9.142857 0 0 1-7.606857 13.970285z m101.595429 258.633143l-162.230857 128a9.142857 9.142857 0 0 1-14.848-7.168v-86.893714H484.571429a9.142857 9.142857 0 0 1-9.142858-9.142857v-64c0-4.973714 4.096-9.142857 9.142858-9.142858h358.838857V256c0-7.68 8.923429-11.995429 14.848-7.168l162.230857 128a9.142857 9.142857 0 0 1 0 14.336z"  horiz-adv-x="1024" />

    
    <glyph glyph-name="bianji" unicode="&#59000;" d="M858.24885941-104.37304687999995H119.01231384A95.38536072 95.38536072 0 0 0 23.62695312-8.987686159999953V730.24885941A95.38536072 95.38536072 0 0 0 119.01231384 825.63422012h413.01861191a38.15414429 38.15414429 0 0 0 0-76.30828857H119.01231384a19.07707214 19.07707214 0 0 1-19.07707214-19.07707214v-739.23654557a19.07707214 19.07707214 0 0 1 19.07707214-19.07707214h739.23654557a19.07707214 19.07707214 0 0 1 19.07707214 19.07707214V395.44624329a38.15414429 38.15414429 0 1 0 76.30828857 0v-404.43392945a95.38536072 95.38536072 0 0 0-95.38536071-95.38536072zM298.33679199 136.95191574a38.15414429 38.15414429 0 0 0-38.15414429 42.92341233l25.7540474 225.10945128a38.15414429 38.15414429 0 0 0 10.49238968 22.89248658L714.21696472 844.71129226a95.38536072 95.38536072 0 0 0 134.49335861 1e-8l125.90867615-125.90867615a95.38536072 95.38536072 0 0 0 0-134.49335861L557.78497314 167.47523117000003a38.15414429 38.15414429 0 0 0-23.84634018-11.44624329l-232.74028015-19.07707214z m62.00048447 246.09423065l-19.07707214-165.97052765 171.69364929 14.30780411 407.29549026 406.34163666a19.07707214 19.07707214 0 0 1 0 26.707901L794.34066773 790.34163666a19.07707214 19.07707214 0 0 1-26.707901 0zM844.89490891 507.04711533a38.15414429 38.15414429 0 0 0-26.70790101 11.44624328L637.90867615 696.86398316a38.44506964 38.44506964 0 0 0 54.36965561 54.3696556l179.32447815-179.32447815a38.15414429 38.15414429 0 0 0-26.707901-64.86204528zM536.80019379 198.95240020999995a38.15414429 38.15414429 0 0 0-26.707901 11.44624329L330.76781464 389.72312164a38.44506964 38.44506964 0 0 0 54.36965561 54.36965561l179.32447814-180.27833176a38.15414429 38.15414429 0 0 0-26.70790099-64.86204528z"  horiz-adv-x="1026" />

    
    <glyph glyph-name="B" unicode="&#59144;" d="M308.70589095 456.9524106a35.42681995 35.42681995 0 0 1-35.05644865-35.75424966v-61.88958091a35.06181635 35.06181635 0 1 1 70.1128973 0V421.19816094a35.42681995 35.42681995 0 0 1-35.05644865 35.75424966z m0-160.87533648a35.42681995 35.42681995 0 0 1-35.05644865-35.75424964v-61.87884552a35.06181635 35.06181635 0 1 1 70.1128973 0v61.87884552a35.42681995 35.42681995 0 0 1-35.05644865 35.75424964z m0 321.75604066a35.42681995 35.42681995 0 0 1-35.05644865-35.76498506v-61.86811011a35.06181635 35.06181635 0 1 1 70.1128973 0V582.06812972a35.42681995 35.42681995 0 0 1-35.05644865 35.76498506z m645.37467319-138.15386241A55.28730993 55.28730993 0 0 1 1000.49506598 534.97729769V602.35266799C1000.49506598 689.1376414700001 931.25173607 759.73899947 846.18979429 759.73899947H177.87893904C92.81699726 759.73899947 23.57366736 689.1376414700001 23.57366736 602.35266799v-67.8208894a55.47517942 55.47517942 0 0 1 45.51809593-55.14774973 90.74633607 90.74633607 0 0 0 0-178.25058134A55.47517942 55.47517942 0 0 1 23.57366736 245.98569780000003v-74.9760335C23.57366736 84.23005851999994 92.81699726 13.628700529999946 177.87893904 13.628700529999946h668.31085525C931.25173607 13.628700529999946 1000.49506598 84.23005851999994 1000.49506598 171.00966430000005V245.51334020000002a55.28730993 55.28730993 0 0 1-46.41450184 55.28730992 90.78390997 90.78390997 0 0 0 0 178.87860225z m-23.69839547-246.91419966v-61.7285499a85.13708957 85.13708957 0 0 0-84.19237438-85.88319988h-502.41671929v14.29955277a35.06181635 35.06181635 0 1 1-70.1128973 0v-14.29955277H177.87893904a85.13708957 85.13708957 0 0 0-84.19237438 85.88319988v62.3834093a162.78086997 162.78086997 0 0 1 0 313.67765216V602.35266799a85.13708957 85.13708957 0 0 0 84.19237438 85.88319988h95.77050326v-7.14977639a35.06181635 35.06181635 0 1 1 70.1128973 0v7.13904098h502.41671929a85.13708957 85.13708957 0 0 0 84.19237438-85.88319987v-54.58950892a162.81307618 162.81307618 0 0 1 0.0107354-314.98737096z m-219.61407749 150.3439091a35.76498505 35.76498505 0 0 1 0 71.50849929h-45.02963523l47.34848163 67.3646349a36.22660725 36.22660725 0 0 1-8.05155 49.91960994 34.62703266 34.62703266 0 0 1-48.92121772-8.22868409l-66.98889591-95.31424876-67.0962499 90.12368286a34.60556185 34.60556185 0 0 1-49.11982263 6.85992059 36.23197495 36.23197495 0 0 1-6.71499269-50.10211172l45.12625383-60.61743602h-43.38175133a35.76498505 35.76498505 0 0 1 0-71.50849929h86.16232028v-42.90939374H467.93871123a35.76498505 35.76498505 0 0 1 0-71.51386701h86.16232028v-66.7419817a35.06181635 35.06181635 0 1 1 70.11289729 0v66.736614h86.55416238a35.76498505 35.76498505 0 0 1 0 71.51386701H624.2192965v42.90939374h86.55416238z"  horiz-adv-x="1024" />

    
    <glyph glyph-name="dingwei1" unicode="&#59053;" d="M514.2509534 780.16779412c146.31196942-1.12547669 264.48702164-120.4260056 263.36154492-265.61249832 0-63.02669452-23.63501044-124.92791235-65.27764789-172.19793326L514.2509534 145.39894217999995l-202.58580383 199.20937375c-43.89359083 51.77192764-66.40312459 118.17505222-63.02669452 186.82913018 7.87833681 130.5552958 115.92409885 240.85201119 246.47939463 248.73034801h19.13310372m0 90.03813502c-7.87833681 0-16.88215032 0-24.76048717-1.12547668-177.82531666-11.25476687-320.76085604-156.4412596-330.8901462-333.14109961-5.62738344-96.79099516 28.1369172-185.7036535 86.66170495-253.23225475l241.9774879-237.47558114c7.87833681-7.87833681 16.88215032-11.25476687 27.01144052-11.25476687 10.12929019 0 20.25858038 3.37643006 28.13691717 11.25476687l235.22462775 235.22462776c55.14835769 61.90121784 88.91265834 144.06101605 90.03813504 234.09915108 0 195.83294369-157.5667363 354.52515666-353.39967996 355.65063334zM509.7490466-102.20592913999997c-163.19411974 1.12547669-438.93590826 36.01525401-437.81043155 165.4450731 0 55.14835769 51.77192764 97.91647184 151.93935288 127.17886573 23.63501044 6.75286012 48.39549757-6.75286012 56.27383437-30.38787056 6.75286012-23.63501044-6.75286012-48.39549757-30.38787057-56.27383441-56.27383438-15.75667363-78.78336815-33.76430063-85.53622827-40.51716076 19.1331037-27.01144052 146.31196942-73.1559847 347.77229654-74.28146139 200.33485043-1.12547669 329.76466954 45.01906752 347.77229654 70.90503133-6.75286012 7.87833681-32.63882394 28.1369172-96.79099516 45.01906752-23.63501044 6.75286012-38.26620737 31.51334726-31.51334726 55.14835771 6.75286012 23.63501044 31.51334726 38.26620737 55.14835769 31.51334725C895.78755054 161.15561581999998 950.93590826 117.26202497999998 950.93590826 58.73723720999999c-2.2509534-128.30434241-277.99274189-162.06864306-441.18686166-160.94316635z m350.02324994 158.69221299zM512 431.27002089c-68.65407795 0-124.92791235 57.39931109-124.92791235 126.05338903S444.47139871 682.2513222800001 513.12547669 682.2513222800001s124.92791235-57.39931109 124.92791234-126.05338903-56.27383438-124.92791235-126.05338903-124.92791236z m1.12547669 160.94316636c-19.1331037 0-36.01525401-15.75667363-36.01525402-34.88977733s15.75667363-36.01525401 34.88977733-36.01525399 36.01525401 15.75667363 36.01525401 34.88977732-15.75667363 36.01525401-34.88977732 36.015254z"  horiz-adv-x="1024" />

    
    <glyph glyph-name="liwu1" unicode="&#59054;" d="M718.94479289-96.58676046000005H305.05520711c-100.61404295 0-182.93462355 82.32058059-182.93462353 182.93462354V425.92025804H900.73607504v-338.42905356c1.1433414-101.75738434-81.17723921-184.07796495-181.79128215-184.07796494zM213.58789534 334.45294624999997v-246.96174177c0-50.30702147 41.16029031-91.46731177 91.46731177-91.46731178H717.8014515c50.30702147 0 91.46731177 41.16029031 91.46731176 91.46731178V334.45294624999997H213.58789534zM857.28910195 334.45294624999997H166.71089805C92.39370725 334.45294624999997 31.79661319 395.05004032 31.79661319 469.36723113v68.60048383c0 74.31719081 60.59709404 134.91428485 134.91428486 134.91428486h689.4348625C931.60629275 674.02534123 992.20338681 613.42824719 992.20338681 537.96771496v-68.60048383c0-74.31719081-60.59709404-134.91428485-134.91428486-134.91428488zM166.71089805 582.55802945c-24.01016934 0-43.44697307-19.43680376-43.44697309-43.44697309v-68.60048382c0-24.01016934 19.43680376-43.44697307 43.44697309-43.44697309h689.4348625c24.01016934 0 43.44697307 19.43680376 43.44697309 43.44697309v68.60048382c0 24.01016934-19.43680376 43.44697307-43.44697309 43.44697309H166.71089805zM557.73365589 582.55802945H411.38595705c-81.17723921 0-146.34769884 65.17045962-146.34769883 146.34769883 0 81.17723921 65.17045962 146.34769884 146.34769883 146.34769884 81.17723921 0 146.34769884-65.17045962 146.34769884-146.34769884v-146.34769883zM411.38595705 783.78611535c-29.72687631 0-54.88038708-25.15351073-54.88038706-54.88038707s25.15351073-54.88038708 54.88038706-54.88038705H466.26634411v54.88038705c0 29.72687631-25.15351073 54.88038708-54.88038706 54.88038707zM612.61404295 582.55802945H466.26634411V728.90572828c0 81.17723921 65.17045962 146.34769884 146.34769884 146.34769884s146.34769884-65.17045962 146.34769883-146.34769884c0-81.17723921-65.17045962-146.34769884-146.34769883-146.34769883z m-54.88038706 91.46731178h54.88038706c29.72687631 0 54.88038708 25.15351073 54.88038706 54.88038705s-25.15351073 54.88038708-54.88038706 54.88038707-54.88038708-25.15351073-54.88038706-54.88038707v-54.88038705zM512-79.43663950999996c-25.15351073 0-45.73365589 20.58014515-45.73365589 45.73365589V660.30524446c0 25.15351073 20.58014515 45.73365589 45.73365589 45.73365589s45.73365589-20.58014515 45.73365589-45.73365589V-33.702983620000055c0-25.15351073-20.58014515-45.73365589-45.73365589-45.73365589z"  horiz-adv-x="1024" />

    
    <glyph glyph-name="xiaoxi1" unicode="&#59058;" d="M773.46230303-106.79576376H512c-134.05482487 0-260.35441193 53.17877351-353.41726554 150.67319159C65.51988082 141.37184590000004 16.77267179 268.77932408000004 22.31212735 402.83414895c9.97102003 254.81495635 216.03876734 460.88270365 470.8537237 470.8537237C627.22067592 879.22732821 755.73604522 830.48011918 852.12257217 737.41726554S1002.79576376 519.1627159899999 1002.79576376 384c0-130.73115151-50.96299127-253.70706523-144.02584489-346.76991887v-58.71822907c0-46.53142681-38.77618901-85.30761583-85.30761584-85.30761582zM512 786.1644746h-15.5104756c-208.28352955-7.7552378-377.79087006-177.26257834-385.54610789-385.54610788-4.43156445-110.78911147 35.45251567-216.03876734 111.89700259-294.69903649 76.4444869-79.76816025 179.47836056-122.97591372 289.1595809-122.97591372h258.1386297v56.50244686c0 22.1578223 8.86312892 44.31564459 25.48149562 60.93401131 76.4444869 76.4444869 118.54434926 177.26257834 118.54434928 284.72801644 0 109.68122036-43.20775347 212.715094-122.97591374 289.1595809-76.4444869 72.01292244-175.04679609 111.89700257-279.18856086 111.89700258zM301.50068823 409.48149564m-55.39455572 0a55.39455572 55.39455572 0 1 1 110.78911144 0 55.39455572 55.39455572 0 1 1-110.78911144 0ZM512 409.48149564m-55.39455572 0a55.39455572 55.39455572 0 1 1 110.78911144 0 55.39455572 55.39455572 0 1 1-110.78911144 0ZM722.49931177 409.48149564m-55.39455572 0a55.39455572 55.39455572 0 1 1 110.78911144 0 55.39455572 55.39455572 0 1 1-110.78911144 0Z"  horiz-adv-x="1024" />

    
    <glyph glyph-name="dingdan1" unicode="&#59061;" d="M642.86963791-103.48940120999998H337.50714945v87.24642527h305.36248846c188.67039466 0 255.19579392 165.76820802 255.19579392 320.63061288v479.855339H251.3513045v-547.47131858h-87.24642527V784.24297594c0 47.9855339 39.26089138 87.24642527 87.24642527 87.24642527h647.80470765c47.9855339 0 87.24642527-39.26089138 87.24642527-87.24642527v-478.76475869C986.40243742 56.82590521999998 851.17047825-103.48940120999998 642.86963791-103.48940120999998zM637.41673633-103.48940120999998h-425.3263232c-95.9710678 0-174.49285055 66.52539926-174.49285055 147.22834264v52.34785517c0 81.7935237 78.52178275 147.22834264 174.49285055 147.22834265h428.59806414v-87.24642528H212.09041313c-46.89495358 0-87.24642527-27.2645079-87.24642528-59.98191737v-52.34785517c0-31.62682916 40.3514717-59.98191738 87.24642528-59.98191737h425.3263232v-87.24642527zM731.2066435 579.21387655H418.21009283c-23.99276694 0-43.62321264 19.63044568-43.62321264 43.62321264s19.63044568 43.62321264 43.62321264 43.62321264h312.99655067c23.99276694 0 43.62321264-19.63044568 43.62321264-43.62321264s-19.63044568-43.62321264-43.62321264-43.62321264zM649.41311981 392.72464253H418.21009283c-23.99276694 0-43.62321264 19.63044568-43.62321264 43.62321264s19.63044568 43.62321264 43.62321264 43.62321263h231.20302698c23.99276694 0 43.62321264-19.63044568 43.62321263-43.62321263s-19.63044568-43.62321264-43.62321263-43.62321264zM640.68847727-83.85895552c-90.51816623 0-164.6776277 74.15946149-164.6776277 164.6776277s74.15946149 164.6776277 164.6776277 164.67762771 164.6776277-74.15946149 164.67762771-164.67762771-74.15946149-164.6776277-164.67762771-164.6776277z m0 241.0182498c-42.53263232 0-77.43120244-34.89857011-77.43120242-77.43120241s34.89857011-77.43120244 77.43120242-77.43120244c42.53263232 0 77.43120244 34.89857011 77.43120244 77.43120244s-34.89857011 77.43120244-77.43120244 77.43120241z"  horiz-adv-x="1024" />

    
    <glyph glyph-name="aixin1" unicode="&#59080;" d="M899.54793945 782.28333944c-73.0007199 73.0007199-176.06055975 101.98629986-275.8997796 79.44195988-23.61787996-5.36769999-37.57389995-27.91203995-32.20619997-51.52991992s27.91203995-37.57389995 51.52991994-32.20619996c70.85363989 16.10309998 143.8543598-4.29415999 195.38427972-55.82407992C946.78369938 613.73755968 946.78369938 437.67699992 838.35615954 330.32300008000004L512 2.893300540000041 184.57030046 329.24946007000005c-107.35399986 108.42753984-107.35399986 284.4880996 0 391.84209945 81.58903989 81.58903989 214.7079997 81.58903989 296.29703959 0l73.00071989-73.00071989c8.58831999-8.58831999 81.58903989-80.51549989 157.81037978-80.51549989h5.36769999c32.20619995 1.07354 60.11823991 16.10309998 81.58903988 41.86805994 15.02955998 18.25017997 11.80893999 45.08867994-6.44123999 60.11823992-18.25017997 15.02955998-45.08867994 11.80893999-60.11823991-6.44123999-6.44123999-8.58831999-12.88247998-9.66185998-18.25017997-10.73539999-27.91203995-2.14708001-74.07425989 31.13265995-97.69213987 55.82407992L543.13265995 781.20979944c-114.86877983 114.86877983-302.73827958 114.86877983-418.6805994 0C-17.25521925 639.50251963-17.25521925 409.76495997 124.45206055 268.05768016L481.94088004-88.35759932999997c8.58831999-8.58831999 19.32371997-12.88247998 30.05911996-12.88247998 10.73539998 0 21.47079998 4.29415999 30.05911996 12.88247998l357.48881949 357.4888195c68.70655991 68.70655991 106.28045986 159.95745977 106.28045986 256.57605963 0 96.61859986-37.57389995 187.86949973-106.28045986 256.57605964zM227.5119004 676.00287959c-35.42681995-32.20619995-52.60345992-80.51549989-52.60345992-142.7808198 0-23.61787996 19.32371997-42.94159994 42.94159994-42.94159993s42.94159994 19.32371997 42.94159994 42.94159993c0 36.50035994 8.58831999 63.33885992 24.69141996 78.36841988 19.32371997 18.25017997 46.16221993 17.17663997 48.30929993 17.17663998 23.61787996-2.14708001 44.01513994 16.10309998 46.16221994 39.72097995 2.14708001 23.61787996-16.10309998 44.01513994-39.72097995 46.16221993-7.51477999 1.07354-66.5594799 4.29415999-112.72169984-38.64743994z"  horiz-adv-x="1024" />

    
    <glyph glyph-name="fenlei1" unicode="&#59050;" d="M335.79771476 411.56906503H164.39004949c-79.11123011 0-143.83860021 64.7273701-143.8386002 143.8386002V726.81533051c0 79.11123011 64.7273701 143.83860021 143.8386002 143.83860021h171.40766527c79.11123011 0 143.83860021-64.7273701 143.83860019-143.83860021v-171.40766528c0-79.11123011-63.52871508-143.83860021-143.83860019-143.8386002zM164.39004949 774.76153055c-26.37041004 0-47.94620008-21.57579003-47.94620006-47.94620004v-171.40766528c0-26.37041004 21.57579003-47.94620008 47.94620006-47.94620006h171.40766527c26.37041004 0 47.94620008 21.57579003 47.94620005 47.94620006V726.81533051c0 26.37041004-21.57579003 47.94620008-47.94620005 47.94620004H164.39004949zM859.60995051 411.56906503H688.20228524c-79.11123011 0-143.83860021 64.7273701-143.83860019 143.8386002V726.81533051c0 79.11123011 64.7273701 143.83860021 143.83860019 143.83860021H859.60995051c79.11123011 0 143.83860021-64.7273701 143.8386002-143.83860021v-171.40766528c0-79.11123011-64.7273701-143.83860021-143.8386002-143.8386002zM688.20228524 774.76153055c-26.37041004 0-47.94620008-21.57579003-47.94620005-47.94620004v-171.40766528c0-26.37041004 21.57579003-47.94620008 47.94620005-47.94620006H859.60995051c26.37041004 0 47.94620008 21.57579003 47.94620006 47.94620006V726.81533051c0 26.37041004-21.57579003 47.94620008-47.94620006 47.94620004H688.20228524zM859.60995051-102.65393071999995H688.20228524c-79.11123011 0-143.83860021 64.7273701-143.83860019 143.83860021V212.59233476999998c0 79.11123011 64.7273701 143.83860021 143.83860019 143.8386002H859.60995051c79.11123011 0 143.83860021-64.7273701 143.8386002-143.8386002v-171.40766528c0-79.11123011-64.7273701-143.83860021-143.8386002-143.83860021zM688.20228524 260.53853483c-26.37041004 0-47.94620008-21.57579003-47.94620005-47.94620006v-171.40766528c0-26.37041004 21.57579003-47.94620008 47.94620005-47.94620004H859.60995051c26.37041004 0 47.94620008 21.57579003 47.94620006 47.94620004V212.59233476999998c0 26.37041004-21.57579003 47.94620008-47.94620006 47.94620006H688.20228524zM335.79771476-102.65393071999995H164.39004949c-79.11123011 0-143.83860021 64.7273701-143.8386002 143.83860021V212.59233476999998c0 79.11123011 64.7273701 143.83860021 143.8386002 143.8386002h171.40766527c79.11123011 0 143.83860021-64.7273701 143.83860019-143.8386002v-171.40766528c0-79.11123011-63.52871508-143.83860021-143.83860019-143.83860021zM164.39004949 260.53853483c-26.37041004 0-47.94620008-21.57579003-47.94620006-47.94620006v-171.40766528c0-26.37041004 21.57579003-47.94620008 47.94620006-47.94620004h171.40766527c26.37041004 0 47.94620008 21.57579003 47.94620005 47.94620004V212.59233476999998c0 26.37041004-21.57579003 47.94620008-47.94620005 47.94620006H164.39004949z"  horiz-adv-x="1024" />

    
    <glyph glyph-name="gouwuche1" unicode="&#59051;" d="M855.28380952 92.72888889000001H389.25003175C314.35174603 92.72888889000001 251.93650794 148.90260317000002 244.65473016 223.80088889l-44.73092064 447.30920635c-3.1207619 28.08685714-23.92584127 50.97244444-52.01269841 55.13346032l-89.46184127 13.52330158c-22.8855873 3.1207619-38.48939683 24.96609524-35.36863492 46.81142857 3.1207619 22.8855873 24.96609524 38.48939683 46.81142857 35.36863492l89.46184127-13.52330158c65.536-10.40253968 115.46819048-64.49574603 121.70971429-128.99149207l44.73092063-447.30920635c3.1207619-32.24787302 30.16736508-56.17371429 62.4152381-56.17371428H855.28380952c34.32838095 0 62.4152381 28.08685714 62.4152381 62.41523809V614.9363809500001c0 34.32838095-28.08685714 62.4152381-62.4152381 62.4152381H437.10171429c-22.8855873 0-41.61015873 18.72457143-41.61015873 41.61015873s18.72457143 41.61015873 41.61015873 41.61015873H855.28380952c80.09955556 0 145.63555556-65.536 145.63555556-145.63555556V238.36444444000006c0-80.09955556-65.536-145.63555556-145.63555556-145.63555555zM792.86857143 471.38133333H442.30298413c-22.8855873 0-41.61015873 18.72457143-41.61015873 41.61015873s18.72457143 41.61015873 41.61015873 41.61015873H792.86857143c22.8855873 0 41.61015873-18.72457143 41.61015873-41.61015873s-18.72457143-41.61015873-41.61015873-41.61015873zM792.86857143 283.09536507999997H442.30298413c-22.8855873 0-41.61015873 18.72457143-41.61015873 41.61015873s18.72457143 41.61015873 41.61015873 41.61015873H792.86857143c22.8855873 0 41.61015873-18.72457143 41.61015873-41.61015873s-18.72457143-41.61015873-41.61015873-41.61015873zM456.86653968-2.9744761900000185m-52.01269841 0a52.01269841 52.01269841 0 1 1 104.02539683 0 52.01269841 52.01269841 0 1 1-104.02539683 0ZM786.62704762-2.9744761900000185m-52.01269841 0a52.01269841 52.01269841 0 1 1 104.02539682 0 52.01269841 52.01269841 0 1 1-104.02539682 0Z"  horiz-adv-x="1024" />

    
    <glyph glyph-name="wode2" unicode="&#59057;" d="M512 75.36577060000002c-219.2066435 0-398.0618153 178.85517181-398.0618153 398.06181531S292.7933565 871.48940121 512 871.48940121s398.0618153-178.85517181 398.0618153-398.0618153S731.2066435 75.36577060000002 512 75.36577060000002z m0 708.87720534c-171.22110961 0-310.81539004-139.59428044-310.81539004-310.81539003S340.77889039 162.61219587000005 512 162.61219587000005s310.81539004 139.59428044 310.81539004 310.81539004S683.22110961 784.24297594 512 784.24297594zM408.39486998 438.52901579c-23.99276694 0-43.62321264 19.63044568-43.62321262 43.62321264v43.62321264c0 23.99276694 19.63044568 43.62321264 43.62321262 43.62321263s43.62321264-19.63044568 43.62321264-43.62321263v-43.62321264c0-23.99276694-19.63044568-43.62321264-43.62321264-43.62321264zM615.60513002 438.52901579c-23.99276694 0-43.62321264 19.63044568-43.62321264 43.62321264v43.62321264c0 23.99276694 19.63044568 43.62321264 43.62321264 43.62321263s43.62321264-19.63044568 43.62321262-43.62321263v-43.62321264c0-23.99276694-19.63044568-43.62321264-43.62321262-43.62321264zM792.27914119-103.48940120999998c-23.99276694 0-43.62321264 19.63044568-43.62321264 43.62321263 0 54.52901579-13.08696379 93.78990717-40.35147167 117.78267412-37.07973073 33.8079898-89.42758591 29.44566853-89.42758592 29.44566853-23.99276694-2.18116065-44.71379295 15.26812442-46.89495358 39.26089138-2.18116065 23.99276694 15.26812442 44.71379295 39.26089138 46.89495357 3.27174094 0 90.51816623 7.63406221 155.95298516-51.25727483 45.80437327-41.44205199 68.70655991-103.60513002 68.70655991-183.21749308 0-22.90218663-18.53986537-42.53263232-43.62321264-42.53263232zM231.72085881-103.48940120999998c-23.99276694 0-43.62321264 19.63044568-43.62321264 43.62321263 0 80.70294337 22.90218663 141.77544107 68.70655991 183.21749308 65.43481897 59.98191738 152.68124424 51.25727485 155.95298516 51.25727484 23.99276694-2.18116065 41.44205199-23.99276694 39.26089138-47.98553389-2.18116065-23.99276694-23.99276694-41.44205199-46.89495358-39.26089138-1.09058032 0-53.43843547 3.27174094-89.42758592-29.44566853-26.17392759-23.99276694-40.3514717-64.34423865-40.35147167-117.78267412 0-23.99276694-19.63044568-43.62321264-43.62321264-43.62321263z"  horiz-adv-x="1024" />

    
    <glyph glyph-name="shouye1" unicode="&#59065;" d="M833.73263951-88.25218200999996H190.26736049c-66.20491136 0-119.63343635 53.42852497-121.95641569 118.47194669L24.17433721 550.56713832c0 44.13660756 24.39128314 84.78874615 62.72044235 105.69556027L442.31061958 853.71594305c44.13660756 24.39128314 96.40364289 24.39128314 140.54025048 0L938.2667101 657.42418825c38.32915923-20.90681412 62.72044236-61.55895268 62.72044236-105.69556026v-3.48446901l-45.29809726-515.70141496c-2.32297937-67.36640105-55.75150434-120.79492603-121.95641569-120.79492603zM117.09351107 551.72862799l45.29809726-519.18588397c0-15.09936575 12.77638642-27.87575217 29.03724183-27.87575216h643.46527901c16.26085543 0 29.03724183 12.77638642 29.03724184 27.87575216v3.48446903L906.90648893 551.72862799c0 9.29191739-5.80744837 18.58383477-15.09936577 23.22979347l-354.25435035 197.45324446c-16.26085543 9.29191739-34.84469019 9.29191739-49.94405595 0l-355.41584002-197.45324446c-9.29191739-4.64595868-15.09936575-12.77638642-15.09936577-23.22979347zM724.55261021-67.34536789000003h-92.91917386V266.00216837000005c0 12.77638642-6.96893804 19.74532445-9.29191738 19.74532444H400.49699137c-2.32297937 0-9.29191739-6.96893804-9.2919174-19.74532444v-333.34753626h-92.91917387V266.00216837000005c0 62.72044236 45.29809726 112.6644983 102.21109127 112.6644983h221.8445276c55.75150434 0 102.21109125-51.10554562 102.21109124-112.6644983v-333.34753626z"  horiz-adv-x="1024" />

    
    <glyph glyph-name="dui1" unicode="&#59094;" d="M47.5 402.5L99 475.3l242.3-185.8L931.2 770l49.7-47.6L345.4 98 47.5 402.5z m0 0"  horiz-adv-x="1024" />

    
    <glyph glyph-name="xinyongqia" unicode="&#58881;" d="M177.41011304 80.24068605000002a58.15571877 58.15571877 0 0 1 58.42613509-57.98109024H1124.78826502c32.28932947 0 58.42613509 25.9629139 58.4261351 57.98109024V456.93577582H177.41011304v-376.67593221zM920.81773049 283.06913532h160.34361406l-29.15485803-130.39519098H891.68203001l29.15485803 130.39519098zM1124.80668575 761.25655362H235.81709057C203.5660762 761.25655362 177.41011304 735.29216604 177.41011304 703.27398971v-159.3761573h1005.78439268v159.3761573a58.15571877 58.15571877 0 0 1-58.42613509 57.98109025z"  horiz-adv-x="1365" />

    
    <glyph glyph-name="duihao" unicode="&#58997;" d="M511.3729721 875.88247854c-271.29004681 0-491.21889683-219.92885112-491.21889682-491.21889682 0-271.28892134 219.92885112-491.21664809 491.21889682-491.21664808 271.29229558 0 491.2200212 219.92772564 491.2200212 491.21664808C1002.5929933 655.9547518100001 782.66526767 875.88247854 511.3729721 875.88247854L511.3729721 875.88247854zM801.45136734 546.7821260200001c-0.65345902-18.25073657-6.86075641-33.58058964-18.62976502-45.98843596L464.14285178 164.94617733999996l3.91962865 4.1299499c-11.76113578-12.39547487-27.12697991-18.76248114-46.08516104-19.11001825-18.96268081-0.34866147-34.31952663 5.67868165-46.08403664 18.0809039l-136.3041054 144.67985126c-11.76451 12.40222224-17.47805724 27.04037756-17.15638964 43.91783693 0.3272917 16.87521061 6.37263035 31.51336485 18.1438888 43.91558817 11.76338562 12.39997348 26.14398045 18.43518945 43.13953575 18.08652799 17.00117828-0.35091132 31.3817742-6.71566773 43.14066011-19.1212653l95.12044813-99.20203551 276.51771787 291.41568137c11.76451 12.39772363 26.14510482 18.7692296 43.1406601 19.11451683 16.99555528 0.34866147 31.37615012-5.68318027 43.15078281-18.0854036C796.54761374 580.36608989 802.11045045 565.03623571 801.45136734 546.7821260200001L801.45136734 546.7821260200001zM801.45136734 546.7821260200001"  horiz-adv-x="1024" />

    
    <glyph glyph-name="jujue" unicode="&#58999;" d="M795.25275381 140.79946395000002L320.31129615 704.41650372C474.65641834 796.99877272 677.68009394 766.6754441200001 797.42313499 624.54646885 917.166177 482.47950533 912.70139211 277.22343679999994 795.25275381 140.79946395000002M226.48880961 143.40392155999996C106.74576759 285.47088605 111.27256326 490.78896536 228.65919078 627.2129382L703.60064845 63.59589844000004C549.25552625-28.986370559999955 346.23185066 1.3369580400000132 226.48880961 143.40392155999996M192.25879412 763.32685618C-17.21401424 586.78183307-43.94071082 273.87484886000004 132.60431229 64.34002877 309.14933442-145.19479133999994 622.11833038-171.85947714000008 831.65315049 4.685545980000029 1041.12595884 181.16855829999997 1067.85265542 494.13755329 891.3076323 703.67237339 714.76261017 913.20719349 401.79361421 939.87187929 192.25879412 763.32685618"  horiz-adv-x="1025" />

    
    <glyph glyph-name="tanhao" unicode="&#58943;" d="M510.41075544 885.10366756c-276.37419922 0-500.41766271-224.04346348-500.4176627-500.41766272s224.04346348-500.41766271 500.4176627-500.41766269 500.41766271 224.03774677 500.41766272 500.41766269-224.03774677 500.41766271-500.41766272 500.41766272z m0-800.66483032a50.04405295 50.04405295 0 1 0 0 100.08238921 50.04405295 50.04405295 0 0 0 0-100.08238921z m50.04405296 216.84612938a50.04405295 50.04405295 0 1 0-100.08238918 0V634.89483619a50.04405295 50.04405295 0 0 0 100.08238918 0v-333.60986957z"  horiz-adv-x="1024" />

    
    <glyph glyph-name="correct-bold" unicode="&#59034;" d="M871.19231198 755.0276819000001l126.28116408-126.28116407-615.77419973-615.77419973L26.41486951 368.25672491 152.80768802 494.53788899l229.00324272-229.00324273 489.38138124 489.49303564z"  horiz-adv-x="1024" />

    
    <glyph glyph-name="paizhao" unicode="&#58905;" d="M975.11288029 652.8129756c-19.80727221 20.7504756-47.16017157 33.01211971-78.28588449 33.01211971h-156.57176801v1.88640679c0 23.58008578-9.43203393 46.21696721-25.4664916 61.30822246-16.03445864 16.03445864-37.72813667 25.46649257-61.30822246 25.46649257h-282.96102746c-24.52328917 0-46.21696721-9.43203393-62.25142585-25.46649257-16.03445864-16.03445864-25.46649257-37.72813667-25.4664916-61.30822246v-1.88640679h-155.62856462c-31.12571292 0-58.47861228-12.26164411-78.28588449-33.01211971-19.80727221-19.80727221-33.01211971-48.10337496-33.01211971-78.28588448v-469.71530404C15.875 73.68607414999997 28.13664411 46.33317480000005 48.88711971 26.52590257999998c19.80727221-19.80727221 48.10337496-33.01211971 78.28588449-33.01211971h769.6539916c31.12571292 0 58.47861228 12.26164411 78.28588449 33.01211971 19.80727221 19.80727221 33.01211971 48.10337496 33.01211971 78.2858845V574.52709112c0 31.12571292-12.26164411 58.47861228-33.01211971 78.28588448zM959.07842165 104.81178708000004h-0.94320339c0-16.97766203-6.60242374-32.06891631-17.92086446-43.38735703s-26.40969596-17.92086543-43.387358-17.92086543H127.1730042c-16.97766203 0-32.06891631 6.60242374-43.387358 17.92086543-11.31844071 11.31844071-17.92086543 26.40969596-17.92086446 43.38735703V574.52709112c0 16.97766203 6.60242374 32.06891631 17.92086446 43.387358s26.40969596 17.92086543 43.387358 17.92086445h182.03825961c14.14805088 0 25.46649257 11.31844071 25.46649257 25.46649257V688.65470549c0 10.37523732 3.77281357 19.80727221 10.37523829 26.40969596s16.03445864 10.37523732 26.40969499 10.37523732h282.01782407c10.37523732 0 19.80727221-3.77281357 26.40969499-10.37523732 6.60242374-6.60242374 10.37523732-16.03445864 10.37523829-26.40969596v-27.35289935c0-14.14805088 11.31844071-25.46649257 25.46649257-25.46649257H897.77019919c16.97766203 0 32.06891631-6.60242374 43.387358-17.92086445s17.92086543-26.40969596 17.92086446-43.387358v-469.71530404zM512 571.69748094c-64.13783263 0-122.61644491-26.40969596-164.11739515-67.91064621-42.44415364-42.44415364-67.9106462-99.97956252-67.91064621-164.11739515s26.40969596-122.61644491 67.91064621-164.11739613c42.44415364-42.44415364 99.97956252-67.9106462 164.11739515-67.91064619s122.61644491 26.40969596 164.11739515 67.91064619c42.44415364 42.44415364 67.9106462 99.97956252 67.91064621 164.11739613s-26.40969596 122.61644491-67.91064621 164.11739515c-41.50095024 41.50095024-99.97956252 67.9106462-164.11739515 67.91064621zM640.27566527 210.45056995000004c-33.01211971-32.06891631-78.28588449-52.81939192-128.27566527-52.81939095S416.73645444 178.38165363999997 383.72433473 210.45056995000004c-33.01211971 33.01211971-52.81939192 78.28588449-52.81939192 128.27566624 0 49.98978174 20.7504756 95.26354556 52.81939192 128.27566526 33.01211971 33.01211971 78.28588449 52.81939192 128.27566527 52.81939096s95.26354556-20.7504756 128.27566527-52.81939096c33.01211971-33.01211971 52.81939192-78.28588449 52.81939192-128.27566526 0.94320339-49.98978174-19.80727221-95.26354556-52.81939192-128.27566624zM847.78041842 526.42371713m-46.21696818 0a46.21696721 46.21696721 0 1 1 92.43393538 0 46.21696721 46.21696721 0 1 1-92.43393538 0Z"  horiz-adv-x="1024" />

    
    <glyph glyph-name="chahao" unicode="&#58882;" d="M512 877.70638021C242.26613974 877.70638021 23.62695312 659.06719359 23.62695312 389.33333333S242.26613974-99.03971354999999 512-99.03971354999999 1000.37304688 119.59947307000004 1000.37304688 389.33333333 781.73386026 877.70638021 512 877.70638021z m238.32604688-678.25248751c10.48374109-10.46203615 10.48374109-31.40781339-1e-8-47.14427844-10.46203615-5.25272301-15.71475916-10.46203615-26.1985012-10.46203519-10.46203615 0-15.71475916 5.20931218-20.94577724 10.46203519L512 343.51308858000004l-191.20347433-191.20347431c-10.48374109-5.25272301-20.94577724-10.46203615-26.19850025-10.4620352-10.48374109 0-15.71475916 5.20931218-20.94577819 10.46203519-10.48374109 10.46203615-10.48374109 31.40781339 0 47.14427844l191.20347433 191.20347433-191.20347433 191.20347433c-10.48374109 10.48374109-10.48374109 31.42951833 0 47.14427748 10.46203615 10.48374109 31.42951833 10.48374109 47.14427844 0l191.20347433-191.20347337 191.20347433 191.20347337c10.46203615 10.48374109 31.42951833 10.48374109 47.14427844 0 10.48374109-10.46203615 10.48374109-31.42951833 0-47.14427748l-191.20347433-191.20347433 191.18176843-191.20347433z"  horiz-adv-x="1024" />

    
    <glyph glyph-name="cart-copy" unicode="&#58883;" d="M343.63597883 105.47199999999998q19.456 0 36.864-7.168t30.208-19.968 20.48-30.208 7.68-36.864-7.68-36.864-20.48-30.208-30.208-20.48-36.864-7.68q-20.48 0-37.888 7.68t-30.208 20.48-20.48 30.208-7.68 36.864 7.68 36.864 20.48 30.208 30.208 19.968 37.888 7.168zM769.61997883 103.42399999999998q19.456 0 37.376-7.168t30.72-19.968 20.48-30.208 7.68-36.864-7.68-36.864-20.48-30.208-30.72-20.48-37.376-7.68-36.864 7.68-30.208 20.48-20.48 30.208-7.68 36.864 7.68 36.864 20.48 30.208 30.208 19.968 36.864 7.168zM941.65197883 685.056q28.672 0 44.544-7.68t22.528-18.944 6.144-24.064-3.584-22.016-13.312-37.888-22.016-62.976-23.552-68.096-18.944-53.248q-13.312-40.96-33.28-56.832t-49.664-15.872l-35.84 0-65.536 0-86.016 0-96.256 0-253.952 0 14.336-92.16 517.12 0q49.152 0 49.152-41.984 0-20.48-9.728-35.84t-38.4-14.336l-49.152 0-94.208 0-118.784 0-119.808 0-99.328 0-55.296 0q-20.48 0-34.304 9.216t-23.04 24.064-14.848 32.256-8.704 32.768q-1.024 6.144-5.632 29.696t-11.264 58.88-14.848 78.848-16.384 87.552q-19.456 103.424-44.032 230.4l-76.8 0q-15.36 0-25.6 7.68t-16.896 18.432-9.216 23.04-2.56 22.528q0 20.48 13.824 33.792t37.376 12.288l103.424 0q20.48 0 32.768-6.144t19.456-15.36 10.24-18.944 5.12-16.896q2.048-8.192 4.096-23.04t4.096-30.208q3.072-18.432 6.144-38.912l700.416 0zM903.76397883 593.9200000000001l-641.024 2.048 35.84-185.344 535.552-1.024z"  horiz-adv-x="1028" />

    
    <glyph glyph-name="shanchu" unicode="&#58955;" d="M787.28428335 41.84018746000004c0-32.97369585-26.83918158-59.81287743-59.81287743-59.81287743H296.52314118c-32.97369585 0-59.81287743 26.83918158-59.81287743 59.81287743V676.76514159h550.5740196v-634.92495413zM356.3360186 784.11641497a12.1054415 12.1054415 0 0 0 12.26902856 12.26902857h287.5533119a12.1054415 12.1054415 0 0 0 12.26902855-12.26902857v-36.03822653H356.3360186v36.03822653z m610.38689702-36.03822653h-226.97702824v36.03822653c0 46.01158353-37.57594479 83.58207542-83.58207542 83.58207541H368.60504716c-46.01158353 0-83.58207542-37.57594479-83.58207541-83.58207541v-36.03822653H57.27708438c-19.93580817 0-36.03822653-16.10241836-36.03822654-36.03822655s16.10241836-36.03822653 36.03822654-36.03822652h107.35672629V41.84564035999995c0-72.8453122 59.0440183-131.89478341 131.89478341-131.89478342h430.94826474c72.8453122 0 131.89478341 59.0440183 131.89478341 131.89478342V676.76514159h107.35672629c19.93580817 0 36.03822653 16.10241836 36.03822654 36.03822654s-16.10787126 35.27482032-36.04367944 35.27482031zM512 90.14744255999994a35.99460333 35.99460333 0 0 1 36.03822653 36.03822654V509.59553785c0 19.93580817-16.10241836 36.03822653-36.03822653 36.03822655s-36.03822653-16.10241836-36.03822653-36.03822655v-383.40986875a36.00005623 36.00005623 0 0 1 36.03822653-36.03822654m-167.93300994 0a35.99460333 35.99460333 0 0 1 36.03822653 36.03822654V509.59553785c0 19.93580817-16.10241836 36.03822653-36.03822653 36.03822655s-36.03822653-16.10241836-36.03822654-36.03822655v-383.40986875c0.76340622-19.93035527 16.87127749-36.03822653 36.03822654-36.03822654m335.86601988 0a35.99460333 35.99460333 0 0 1 36.03822654 36.03822654V509.59553785c0 19.93580817-16.10241836 36.03822653-36.03822654 36.03822655s-36.03822653-16.10241836-36.03822653-36.03822655v-383.40986875a36.00005623 36.00005623 0 0 1 36.03822653-36.03822654"  horiz-adv-x="1024" />

    
    <glyph glyph-name="minus-bold" unicode="&#59122;" d="M1004.39605093 296.07213376000004H19.60394907V471.92786624h984.79210186v-175.85573248z"  horiz-adv-x="1024" />

    
    <glyph glyph-name="plus-bold" unicode="&#59121;" d="M1004.39605093 301.40546709H599.92786624v-404.46818469H424.07213376V301.40546709H19.60394907V477.26119957h404.46818469V881.72938426h175.85573248v-404.46818469h404.46818469v-175.85573248z"  horiz-adv-x="1024" />

    
    <glyph glyph-name="gouwuche" unicode="&#58880;" d="M354.98666667 125.56190475999995q18.52952381 0 35.10857143-6.82666666t29.25714285-19.01714286 19.50476191-28.76952381 6.82666666-35.10857143-6.82666666-35.10857143-19.50476191-28.76952381-29.25714285-19.5047619-35.10857143-7.31428572q-19.5047619 0-35.59619048 7.31428572t-28.76952381 19.5047619-19.5047619 28.76952381-6.82666667 35.10857143 6.82666667 35.10857143 19.5047619 28.76952381 28.76952381 19.01714286 35.59619048 6.82666666zM760.68571429 123.61142857000004q18.52952381 0 35.59619047-6.82666667t29.25714286-19.01714285 19.5047619-28.76952381 7.31428572-35.10857143-7.31428572-35.10857143-19.5047619-28.76952381-29.25714286-19.5047619-35.59619047-7.31428572-35.10857143 7.31428572-28.76952381 19.5047619-19.50476191 28.76952381-7.31428571 35.10857143 7.31428571 35.10857143 19.50476191 28.76952381 28.76952381 19.01714285 35.10857143 6.82666667zM924.52571429 677.54666667q27.30666667 0 42.42285714-7.31428572t21.45523809-18.04190476 5.85142858-22.91809524-3.41333334-20.96761905-12.19047619-36.08380952-20.96761905-59.97714286-22.91809523-64.85333333-17.06666667-50.71238095q-12.67809524-39.00952381-32.18285714-54.12571429t-47.78666667-15.11619047l-33.15809524 0-63.39047619 0-82.89523809 0-90.69714286 0-241.85904762 0 14.62857143-87.77142858 491.52 0q46.81142857 0 46.81142857-39.9847619 0-19.5047619-9.26476191-33.64571429t-36.57142857-14.14095238l-46.81142857 0-90.69714286 0-112.15238095 0-114.10285714 0-93.62285714 0-53.63809524 0q-19.5047619 0-32.67047619 8.77714286t-21.94285714 22.91809524-14.14095239 30.72-8.28952381 31.20761905q-0.9752381 5.85142857-5.36380952 28.28190476t-10.72761905 56.07619047-14.14095238 75.09333334-15.60380952 83.38285714q-18.52952381 98.49904762-41.9352381 219.42857143l-73.14285714 0q-14.62857143 0-24.38095238 7.31428571t-16.09142857 17.55428572-8.77714286 21.94285714-2.43809524 21.4552381q0 19.5047619 13.16571429 32.18285714t35.59619047 12.67809524l21.4552381 0 19.5047619 0 24.38095239 0 33.15809523 0q19.5047619 0 31.20761905-5.85142857t18.52952381-14.62857143 9.75238095-18.52952381 4.87619048-16.57904762q1.95047619-7.80190476 3.90095238-21.94285714t3.90095238-28.76952381q2.92571429-17.55428571 5.85142857-37.05904762l667.06285715 0z"  horiz-adv-x="1024" />

    
    <glyph glyph-name="jiantou1" unicode="&#58884;" d="M695.33445507 388.13249709L406.05554474 98.97188544999995c-10.54827005-10.54827005-27.60294952-10.46940464-38.07235359 0.1774475a27.30720333 27.30720333 0 0 0 0.15773084 38.38781584l250.57563165 250.45733352L368.20007133 636.7167731A27.28748726 27.28748726 0 0 0 367.92404179 675.10458895 26.77486086 26.77486086 0 0 0 405.99639596 675.40033515l289.33805912-287.26783806z"  horiz-adv-x="1024" />

    
    <glyph glyph-name="sousuo1" unicode="&#58897;" d="M987.54650994-27.284752949999984L833.78588077 126.47587622000003c-1.46438658 1.46438658-3.41690297 2.44064525-5.3694184 3.41690296 149.85559733 178.65520772 140.58114707 446.14988996-27.33522382 614.55438877C715.17053815 830.35786931 600.46022734 877.70638021 478.91611059 877.70638021s-236.25442755-47.3485109-322.16512795-133.74734113c-177.67895001-177.67895001-177.67895001-466.65130686 0-644.33025686 85.91070136-85.91070136 200.62101216-133.25921226 322.16512795-133.25921227 107.87650485 0 210.38359128 37.58593178 292.3892608 105.92398941 1.46438658-1.46438658 1.95251639-3.41690297 3.41690202-5.36941937l153.76063013-153.76062917c8.29819254-8.29819254 19.03703033-12.20322437 29.77586811-12.20322437s21.47767558 3.90503183 29.77586716 12.20322437c15.62012735 16.59638507 15.62012735 42.9553502-0.48812887 59.55173623M478.91611059 49.83962606c-99.57831231 0-192.81094848 38.5621895-263.10152155 108.85276352-144.97430777 144.97430777-144.97430777 381.22873532 0 526.20304214C286.1051621 755.18600573 379.82592714 794.2363241 478.91611059 794.2363241s192.81094848-38.5621895 263.10152155-108.85276257c144.97430777-144.97430777 144.97430777-381.22873532 0-526.20304309-70.29057306-70.77870288-163.52320923-109.34089238-263.10152155-109.34089238z"  horiz-adv-x="1024" />

    
    <glyph glyph-name="sousuo2" unicode="&#58889;" d="M776.74702708 739.52052759c-171.26871429 171.26871429-448.99884038 171.26871429-620.26755467 0s-171.26871429-448.99884038 0-620.26755467c153.63333815-153.63333815 392.63055223-168.99667197 563.89926653-47.06373388L871.1990723-78.63109433c28.45462531-28.45462531 74.97739672-28.45462531 103.43202203 0s28.45462531 74.97739672 0 103.43202203L823.81076096 175.51306857999998c121.9329381 171.37690678 106.56960429 410.37412085-47.06373388 564.00745901z m-103.32382953-516.94372514c-114.03488621-114.03488621-299.4768169-114.03488621-413.51170311 0S145.87660823 522.16181185 259.91149444 636.0885055599999s299.4768169 114.03488621 413.51170311 0 114.03488621-299.4768169 0-413.51170311z"  horiz-adv-x="1024" />

    
    <glyph glyph-name="kefu1" unicode="&#58915;" d="M519.08750028 100.49999959000002h14.17499958c49.6125 7.08750028 92.13749972 35.43750041 106.31250028 85.05000041 0 0 0 7.08750028-7.08750028 7.08750028h-7.08750027s-21.26249986-28.35000014-99.225-42.52500069h-35.43749945c-56.70000028 0-77.96250014 21.26249986-77.96250014 21.26250082h-7.08750028v-7.08750027c28.35000014-42.52499972 63.78749959-63.78749959 113.40000056-63.78750055z m403.98749931 453.60000027C880.54999986 738.37500028 710.45 880.125 504.91249972 880.125c-212.62499959 0-382.72500041-148.8375-425.25000013-340.19999972-35.43750041-7.08750028-63.78749959-42.52499972-63.78749959-77.96250014v-155.92500028c0-42.52499972 35.43750041-77.96250014 77.96250014-77.96250014 28.35000014 0 49.6125 14.17499959 63.78749958 28.35000014 35.43750041-92.13749972 106.31250028-163.01249959 198.45-205.53750027 0 0 0 7.08750028 7.08750028 7.08750027h14.17499959c-21.26249986 14.17499959-99.225 92.13749972-113.39999959 205.53750028-14.17499959 49.6125 21.26249986 99.225 63.78749959 106.31250027 70.87499986 14.17499959 141.74999972 28.35000014 205.53750027 42.52499973 42.52499972 7.08750028 77.96250014 28.35000014 92.13749973 70.87499986 7.08750028 7.08750028 7.08750028 28.35000014 14.17500055 56.70000028 0 7.08750028 7.08750028 7.08750028 7.08750027 7.08749931H653.74999972c28.35000014-35.43750041 85.05000041-120.48749986 92.13750069-212.62499959 7.08750028-106.31250028 7.08750028-170.09999986-77.96250013-248.0625v-14.17499959c85.05000041 42.52499972 148.8375 120.48749986 177.18750013 205.53749931 21.26249986-21.26249986 42.52499972-35.43750041 63.78749959-35.43749944-35.43750041-148.8375-177.18750014-248.0625-347.2875-262.23750056-7.08750028 28.35000014-35.43750041 42.52499972-63.78749959 42.52500069-42.52499972 0-70.87499986-28.35000014-70.87500082-63.78750055s28.35000014-63.78749959 70.87500082-63.78749958c28.35000014 0 56.70000028 21.26249986 63.78749959 49.6125 198.45 14.17499959 361.46249959 127.57500014 396.9 311.84999958 28.35000014 14.17499959 49.6125 42.52499972 49.6125 70.87499986V476.13749972c0 42.52499972-35.43750041 77.96250014-85.05000041 77.96250014z m-70.87499987-42.52499972C795.50000041 646.23749959 660.8375 745.46249959 504.91249972 745.46249959 341.90000014 745.46249959 207.23749972 646.23749959 157.62499972 511.57500014l-7.08749931 7.08750027C178.88749959 688.76250028 327.72499959 809.25000014 504.91249972 809.25000014s326.02500014-127.57500014 354.37500028-290.58749973l-7.08750028-7.08750027z m-496.125-453.60000028z"  horiz-adv-x="1024" />

    
    <glyph glyph-name="weixin" unicode="&#58969;" d="M685.98247619 574.69155556c10.40253968 0 20.54501587-0.45511111 30.88253968-1.43034921C693.52431746 721.4973968300001 548.1488254 835.73028571 372.21587302 835.73028571c-192.18692063 0-347.96495238-136.33828571-347.96495239-304.46933333 0-94.01295238 48.76190476-178.07847619 125.22057143-233.99212698-9.75238095-48.89193651-21.91034921-113.19263492-20.15492063-111.04711111 2.66565079 0.9752381 69.89206349 38.29434921 112.15238095 62.74031746 40.37485714-14.23847619 84.45561905-22.23542857 130.74692064-22.23542858 4.87619048 0 9.62234921 0.13003175 14.49853968 0.2600635-5.39631746 21.00012698-8.192 42.52038095-8.192 65.01587301-0.06501587 156.10311111 137.5735873 282.68901587 307.46006349 282.68901588z m-177.10323809 99.40926984c24.05587302 0 43.49561905-19.43974603 43.49561904-43.43060318 0-24.05587302-19.5047619-43.56063492-43.49561904-43.56063492-23.99085714 0-43.49561905 19.56977778-43.49561905 43.56063492 0 23.99085714 19.5047619 43.43060317 43.49561905 43.43060318z m-267.15022223-86.9912381c-24.05587302 0-43.43060317 19.56977778-43.43060317 43.56063492 0 23.99085714 19.43974603 43.43060317 43.43060317 43.43060318s43.49561905-19.43974603 43.49561905-43.43060318c0-24.05587302-19.5047619-43.56063492-43.49561905-43.56063492z m758.0200635-285.7447619c0 140.69434921-133.4775873 254.73219048-298.16279366 254.73219047-164.75022222 0-298.2928254-114.10285714-298.29282539-254.73219047 0-140.69434921 133.54260317-254.86222222 298.29282539-254.86222223 44.79593651 0 87.25130159 8.51707937 125.48063492 23.66577778C866.40152381 49.16825397000002 909.24698413 27.062857140000006 911.39250794 26.41269840999996c1.49536508-1.62539683-6.95669841 39.52965079-16.12393651 81.07479365 63.8455873 46.94146032 104.48050794 116.24838095 104.48050794 193.87733334z m-410.05511112 55.91365079c-24.05587302 0-43.56063492 19.43974603-43.56063492 43.43060318 0 23.99085714 19.5047619 43.56063492 43.56063492 43.56063492 23.99085714 0 43.43060317-19.56977778 43.43060318-43.56063492 0-23.99085714-19.43974603-43.43060317-43.43060318-43.43060318z m217.41307937 0c-23.99085714 0-43.56063492 19.43974603-43.56063492 43.43060318 0 23.99085714 19.56977778 43.56063492 43.56063492 43.56063492s43.56063492-19.56977778 43.56063492-43.56063492c0-23.99085714-19.56977778-43.43060317-43.56063492-43.43060318z"  horiz-adv-x="1024" />

    
    <glyph glyph-name="xiala1" unicode="&#58920;" d="M582.9750175 31.92540538000003l395.56976581 434.07655711c55.65981608 61.08577338 12.42719191 159.27809113-70.36240971 159.27809112H116.86781159c-82.61457027 0-126.02222579-98.19231775-70.36240972-159.27809112l395.7447962-433.90152577c37.80666783-41.48231648 102.9181516-41.48231648 140.72481943-0.17503134z"  horiz-adv-x="1024" />

    
    <glyph glyph-name="lajitong" unicode="&#58903;" d="M850.52467256 749.19152353h-143.10994386v44.83267269c0 44.19944281-35.96745492 80.16689778-80.1668978 80.16689774H401.81800782c-44.19944281 0-80.16689778-35.96745492-80.1668978-80.16689774v-44.83267269h-143.10994387c-41.66652347 0-75.60764293-33.94111947-75.60764292-75.60764293v-48.7586977c0-41.66652347 33.94111947-75.60764293 75.60764292-75.60764292h2.27962743v-522.79455607c0-68.51546871 55.72422594-124.23969465 124.23969464-124.23969464h419.07150824c68.51546871 0 124.23969465 55.72422594 124.23969467 124.23969464V549.2175399800001h2.27962741c41.66652347 0 75.60764293 33.94111947 75.60764292 75.60764292v48.7586977c-0.12664595 41.66652347-33.94111947 75.60764293-75.7342889 75.60764293z m-474.79573418 44.83267269c0 14.43764037 11.65142906 26.08906942 26.08906944 26.0890694h225.42982308c14.43764037 0 26.08906942-11.65142906 26.08906945-26.0890694v-44.83267269H375.72893838v44.83267269z m418.43827841-767.47456634c0-38.62702026-31.40820008-70.16186631-70.16186628-70.16186629H304.93384226c-38.62702026 0-70.16186631 31.40820008-70.16186631 70.16186629V549.2175399800001h559.39524084v-522.6679101z m77.88727035 598.27555302c0-11.904721-9.62509357-21.52981457-21.52981458-21.52981455H178.54116615c-11.904721 0-21.52981457 9.62509357-21.52981456 21.52981455v48.7586977c0 11.904721 9.62509357 21.52981457 21.52981456 21.5298146h672.11015239c11.904721 0 21.52981457-9.62509357 21.52981455-21.5298146v-48.7586977zM342.16775684 452.71331234h54.07782836v-402.10094854h-54.07782836zM487.4306822 452.71331234h54.07782837v-402.10094854h-54.07782837zM632.82025352 452.71331234h54.07782834v-402.10094854h-54.07782834z"  horiz-adv-x="1024" />

    
    <glyph glyph-name="dui" unicode="&#58888;" d="M512 874C241.38 874 22 654.62 22 384s219.38-490 490-490 490 219.38 490 490S782.62 874 512 874z m259.66-369.85L481.12 213.62c-13.87-13.87-36.36-13.87-50.23 0L252.34 392.17c-13.87 13.87-13.87 36.36 0 50.23 13.87 13.87 36.36 13.87 50.23 0l153.44-153.44 265.42 265.42c13.87 13.87 36.36 13.87 50.23 0 13.87-13.87 13.87-36.36 0-50.23z"  horiz-adv-x="1024" />

    
    <glyph glyph-name="shoucang" unicode="&#59197;" d="M810.17581862 255.40549562l-0.9031716-0.90317256a30.49281053 30.49281053 0 0 1-8.04253233-26.53605656l39.73957261-241.62004156c10.10692622-61.50171952-53.20113746-109.49886577-107.86455441-79.13507961l-207.72958398 114.48781669a24.85873676 24.85873676 0 0 1-24.51467109 0l-207.72958399-114.44480825c-54.79244133-30.44980208-118.61660348 17.76238448-107.95057132 79.13507962l39.65355668 240.93191028c1.63431135 11.05310628-1.46227852 20.94499122-8.68765516 27.91231915L47.8555545 426.66412968c-42.83616249 43.52429379-19.35368833 118.96066818 41.20185115 128.59450437l232.5883217 35.69680271a27.00914658 27.00914658 0 0 1 20.21385148 16.3431144l103.21966913 219.77187874a73.11393272 73.11393272 0 0 0 133.19638122 0l103.4777179-220.15895284c3.65569678-8.08554079 12.04229477-14.49376177 19.7837699-15.91303282l233.27645203-35.69680178c60.59854696-9.03172084 84.21004648-84.72614492 41.54591681-128.07840588l-166.1836672-171.81774096z m116.93928369 219.85789469c3.95675399 4.04276991 1.72032825 11.35416346-2.58049136 11.99928728l-234.43767337 35.86883458a98.23071821 98.23071821 0 0 0-70.79149007 54.9214657l-103.30568507 219.77187875c-2.1504098 4.47285245-6.4942379 4.47285245-8.60163927 1e-8L404.26446995 578.39704353a95.60721838 95.60721838 0 0 0-72.03872733-55.48057263l-232.54531228-35.69680176c-4.429844-0.68813128-6.79529508-8.25757362-2.75252422-12.34335198l167.55992883-170.74253654c23.13840949-22.14922098 33.11631036-54.36235878 28.38540914-87.39265223l-39.86859699-241.92109974c-0.98918849-5.80610659 3.56967989-9.24676211 6.88131104-7.39740951l207.81560084 114.57383264a93.75786577 93.75786577 0 0 0 90.83330874-0.04300845l207.85860835-114.57383262c3.18260675-1.76333571 7.69846668 1.67731979 6.70927821 7.74147513l-39.86859702 242.2651654c-4.68789372 32.12712186 5.16098376 64.08221092 27.91231914 86.23143189l165.9686259 171.6026997z"  horiz-adv-x="1024" />

    
    <glyph glyph-name="wenjian" unicode="&#59208;" d="M264.70287622 869.60162481h494.59424756A170.85983071 170.85983071 0 0 0 930.15695451 698.74179408v-629.48358816a170.85983071 170.85983071 0 0 0-170.85983073-170.85983073H264.70287622A170.85983071 170.85983071 0 0 0 93.84304549 69.25820592000002V698.74179408A170.85983071 170.85983071 0 0 0 264.70287622 869.60162481z m0-71.94098119A98.91884951 98.91884951 0 0 1 165.7840267 698.74179408v-629.48358816A98.91884951 98.91884951 0 0 1 264.70287622-29.66064362999998h494.59424756a98.91884951 98.91884951 0 0 1 98.91884952 98.91884954V698.74179408A98.91884951 98.91884951 0 0 1 759.29712378 797.66064363H264.70287622zM309.66599007 505.40040595h224.81556638a35.97049107 35.97049107 0 1 1 0 71.94098218H309.66599007a35.97049107 35.97049107 0 1 1 0-71.94098218zM309.66599007 325.54795248000005h404.66801986a35.97049107 35.97049107 0 1 1 0 71.94098119H309.66599007a35.97049107 35.97049107 0 1 1 0-71.94098119zM309.66599007 145.69549898000002h404.66801986a35.97049107 35.97049107 0 1 1 0 71.9409812H309.66599007a35.97049107 35.97049107 0 1 1 0-71.9409812z"  horiz-adv-x="1024" />

    
    <glyph glyph-name="hezuo" unicode="&#59255;" d="M792.88155306 159.67464557000005l-121.82640987 121.82641087a42.24582903 42.24582903 0 0 0 59.72504106 59.72504106l121.82641084-121.82641086 65.32261338 65.32261433-434.12870462 434.12870461a211.65160545 211.65160545 0 0 1-299.31170242-299.25889388l434.12870559-434.18151314 68.649473 68.64947301-121.82641086 121.82641084a42.24582903 42.24582903 0 0 0 59.72504106 59.72504106l121.82641086-121.82640987 45.88953197 45.88953197z m-146.90987115-264.5645075a42.24582903 42.24582903 0 0 0-58.088016 1.5842185l-463.11990555 463.1199065a296.14326445 296.14326445 0 1 0 418.76178453 418.76178457l75.09196213-75.03915455 80.21426848 80.1614609a296.14326445 296.14326445 0 1 0 418.76178455-418.76178454l-463.01429047-463.01429145a47.68497966 47.68497966 0 0 0-8.60758767-6.86494652z m32.42367372 748.64890639l299.25889488-299.25889485 80.26707601 80.16146088a211.65160545 211.65160545 0 0 1-299.36450999 299.31170243L678.44816318 643.81185102z"  horiz-adv-x="1239" />

    
    <glyph glyph-name="wode" unicode="&#59189;" d="M512 384a243.43310622 243.43310622 0 1 1 0 486.86621246 243.43310622 243.43310622 0 0 1 0-486.86621246z m0 70.81690337a172.61620286 172.61620286 0 1 0 0 345.23240573 172.61620286 172.61620286 0 0 0 0-345.23240573zM246.43661166 339.73943479h531.12677668a221.30282412 221.30282412 0 0 0 221.30282412-221.30282313v-88.52112946a132.78169465 132.78169465 0 0 0-132.78169466-132.78169466H157.9154822a132.78169465 132.78169465 0 0 0-132.78169466 132.78169466v88.52112946a221.30282412 221.30282412 0 0 0 221.30282412 221.30282313z m0-70.81690337A150.48591978 150.48591978 0 0 1 95.9506909 118.43661166000004v-88.52112946A61.96479033 61.96479033 0 0 1 157.9154822-32.04930909999996h708.1690356a61.96479033 61.96479033 0 0 1 61.9647913 61.9647913v88.52112946a150.48591978 150.48591978 0 0 1-150.48592076 150.48591976H246.43661166z"  horiz-adv-x="1024" />

    
    <glyph glyph-name="dingdan" unicode="&#59245;" d="M268.56689378 862.01409942h486.86621244A168.19014586 168.19014586 0 0 0 923.6232521 693.8239535499999v-619.6479071a168.19014586 168.19014586 0 0 0-168.19014588-168.19014587H268.56689378A168.19014586 168.19014586 0 0 0 100.3767479 74.17604644999994V693.8239535499999A168.19014586 168.19014586 0 0 0 268.56689378 862.01409942z m0-70.81690336A97.37324249 97.37324249 0 0 1 171.19365128 693.8239535499999v-619.6479071A97.37324249 97.37324249 0 0 1 268.56689378-23.197196070000018h486.86621244a97.37324249 97.37324249 0 0 1 97.3732425 97.37324251V693.8239535499999A97.37324249 97.37324249 0 0 1 755.43310622 791.19719607H268.56689378zM312.82745898 503.50352461h398.34508204a35.40845215 35.40845215 0 1 1 0 70.81690433H312.82745898a35.40845215 35.40845215 0 1 1 0-70.81690433zM312.82745898 282.20070146h221.30282315a35.40845215 35.40845215 0 1 1 0 70.81690338H312.82745898a35.40845215 35.40845215 0 1 1 0-70.81690338z"  horiz-adv-x="1024" />

    
    <glyph glyph-name="account_balance_wallet_px_rounded" unicode="&#60731;" d="M383.14483857 177.83174197999995V590.1682580199999c0 56.69627043 46.38785797 103.08412841 103.08412964 103.08412843h463.87857962V744.79445126c0 56.69627043-46.38785797 103.08412841-103.08412958 103.08412841h-721.5889013c-56.69627043 0-103.08412841-46.38785797-103.08412842-103.08412841v-721.58890252c0-56.69627043 46.38785797-103.08412841 103.08412842-103.08412841h721.5889013c56.69627043 0 103.08412841 46.38785797 103.08412958 103.08412841v51.54206481h-463.87857962c-56.69627043 0-103.08412841 46.38785797-103.08412964 103.08412843z m154.62619322 412.33651604c-30.92523864 0-51.5420648-20.61682618-51.54206358-51.5420648v-309.25238644c0-30.92523864 20.61682618-51.5420648 51.54206358-51.5420648h463.87857968V590.1682580199999h-463.87857968z m154.62619325-283.48135463c-41.23365113 0-77.31309661 36.07944549-77.31309663 77.31309661s36.07944549 77.31309661 77.31309663 77.31309661 77.31309661-36.07944549 77.3130966-77.31309661-36.07944549-77.31309661-77.3130966-77.31309661z"  horiz-adv-x="1024" />

    
    <glyph glyph-name="assignment_late_px_rounded" unicode="&#60732;" d="M856.14508878 777.30867205h-206.48705305c-19.66543402 58.99630086-73.74537608 98.32716773-137.65803573 98.32716887s-117.99260173-39.33086687-137.65803573-98.32716887H167.85491122c-54.07994206 0-98.32716773-44.24722565-98.32716773-98.32716771v-688.29017639c0-54.07994206 44.24722565-98.32716773 98.32716773-98.32716887h688.29017756c54.07994206 0 98.32716773 44.24722565 98.32716773 98.32716887V678.98150434c0 54.07994206-44.24722565 98.32716773-98.32716773 98.32716771z m-294.98150435-737.45376083h-98.32716886v98.32716888h98.32716886v-98.32716888z m0 245.81792105c0-29.49815043-19.66543402-49.16358443-49.16358443-49.16358444s-49.16358443 19.66543402-49.16358443 49.16358444v196.65433546c0 29.49815043 19.66543402 49.16358443 49.16358443 49.16358444s49.16358443-19.66543402 49.16358443-49.16358444v-196.65433546z m-49.16358443 393.30867207c-29.49815043 0-49.16358443 19.66543402-49.16358443 49.16358444s19.66543402 49.16358443 49.16358443 49.16358327 49.16358443-19.66543402 49.16358443-49.16358327-19.66543402-49.16358443-49.16358443-49.16358444z"  horiz-adv-x="1024" />

    
    <glyph glyph-name="assignment_turned_in_px_rounded" unicode="&#60734;" d="M856.14508878 777.30867205h-206.48705305c-19.66543402 58.99630086-73.74537608 98.32716773-137.65803573 98.32716887s-117.99260173-39.33086687-137.65803573-98.32716887H167.85491122c-54.07994206 0-98.32716773-44.24722565-98.32716773-98.32716771v-688.29017639c0-54.07994206 44.24722565-98.32716773 98.32716773-98.32716887h688.29017756c54.07994206 0 98.32716773 44.24722565 98.32716773 98.32716887V678.98150434c0 54.07994206-44.24722565 98.32716773-98.32716773 98.32716771z m-344.14508878 0c29.49815043 0 49.16358443-19.66543402 49.16358443-49.16358327s-19.66543402-49.16358443-49.16358443-49.16358444-49.16358443 19.66543402-49.16358443 49.16358444 19.66543402 49.16358443 49.16358443 49.16358327zM379.25832305 123.43300491000002l-127.82531814 127.82531814c-9.83271643 9.83271643-14.74907522 19.66543402-14.74907524 34.41450922s4.91635878 24.58179163 14.74907524 34.41450806c19.66543402 19.66543402 49.16358443 19.66543402 68.82901729 0l93.41081007-93.41080892 290.06514553 290.06514554c19.66543402 19.66543402 49.16358443 19.66543402 68.82901729 0 19.66543402-19.66543402 19.66543402-49.16358443 0-68.82901728l-324.47965476-324.47965476c-19.66543402-19.66543402-49.16358443-19.66543402-68.82901728 0z"  horiz-adv-x="1024" />

    
    <glyph glyph-name="wuliuqiache2" unicode="&#59425;" d="M991.16487591 439.91365079c-0.65015873 1.30031746-0.65015873 2.60063492-1.30031746 3.25079365l-191.14666667 191.14666667C790.91598702 642.11301587 781.16360607 644.71365079 771.41122512 644.06349206L610.82201877 644.06349206c0 71.51746032-58.51428571 130.03174603-130.03174604 130.03174604L155.71090766 774.0952381C84.19344734 774.0952381 25.67916162 715.58095238 25.67916162 644.06349206l0-487.61904762C25.67916162 138.24 39.98265369 123.93650793999996 58.18709813 123.93650793999996L90.69503464 123.93650793999996c0-71.51746032 58.51428571-130.03174603 130.03174603-130.03174604 71.51746032 0 130.03174603 58.51428571 130.03174603 130.03174604l325.07936508 0c0-71.51746032 58.51428571-130.03174603 130.03174603-130.03174604 71.51746032 0 130.03174603 58.51428571 130.03174604 130.03174604l32.5079365 0c18.20444444 0 32.50793651 14.30349206 32.50793651 32.5079365l0 260.06349207C1000.91725686 425.61015873 997.01630448 434.06222222 991.16487591 439.91365079zM220.72678067 58.92063492c-35.75873016 0-65.01587302 29.25714286-65.01587301 65.01587302 0 35.75873016 29.25714286 65.01587302 65.01587301 65.01587301s65.01587302-29.25714286 65.01587302-65.01587301C285.74265369 88.17777778000004 256.48551083 58.92063492 220.72678067 58.92063492zM805.86963781 58.92063492c-35.75873016 0-65.01587302 29.25714286-65.01587301 65.01587302 0 35.75873016 29.25714286 65.01587302 65.01587301 65.01587301 35.75873016 0 65.01587302-29.25714286 65.01587302-65.01587301C870.88551083 88.17777778000004 841.62836797 58.92063492 805.86963781 58.92063492zM610.82201877 384L610.82201877 579.04761905l130.03174603 0 195.04761905-195.04761905L610.82201877 384z"  horiz-adv-x="1024" />

    
    <glyph glyph-name="daifahuo" unicode="&#58898;" d="M988.87399357 16.865562009999962c0-19.53492187-15.87212402-35.4070459-35.40704589-35.4070459H66.58149455A35.4070459 35.4070459 0 0 0 31.17444864 16.865562009999962V581.30271094c0 19.53492187 15.87212402 35.4070459 35.40704591 35.4070459h143.94795556L213.03236198 307.69171143000005s6.34884961-28.02040357 22.89248658-24.17446582c17.88666284 4.09012427 86.50307593 63.61058936 86.50307592 63.61058935s67.82280688-63.73268262 83.93911744-62.3286101c13.97967846 1.28197925 24.17446582 22.89248658 24.17446581 22.89248657l-1.22093262 309.07909203h524.14637256c19.53492187 0 35.4070459-15.87212402 35.4070459-35.40704589v-564.49819556z m1e-8 697.15252442a61.04663086 61.04663086 0 0 0-61.04663086-61.04663086H94.11352507a61.04663086 61.04663086 0 0 0-61.04663086 61.04663086v11.4767666a61.04663086 61.04663086 0 0 0 61.04663086 61.04663086h833.65279101a61.04663086 61.04663086 0 0 0 61.04663086-61.04663086v-11.4767666z"  horiz-adv-x="1024" />

    
    <glyph glyph-name="wenhao" unicode="&#59181;" d="M460.06713877 89.33535683000002c0-28.6818133 23.25104791-51.93286123 51.93286123-51.93286123s51.93286123 23.25104791 51.93286123 51.93286123c0 28.6818133-23.25104791 51.93286123-51.93286123 51.93286124S460.06713877 118.01717013999996 460.06713877 89.33535683000002zM512-100.70236263000004c-267.27817311 0-484.70236263 217.4241895-484.70236263 484.70236263S244.72182689 868.70236263 512 868.70236263 996.70236263 651.27817311 996.70236263 384 779.27817311-100.70236263000004 512-100.70236263000004zM512 799.14836016c-228.91850357 0-415.14836016-186.2298555-415.14836016-415.14836016 0-228.88314302 186.2298555-415.14836016 415.14836016-415.14836016 228.88314302 0 415.14836016 186.26335624 415.14836016 415.14836016C927.14836016 612.91850357 740.88314302 799.14836016 512 799.14836016zM512 209.05787364000003c-19.11190287 0-34.62252779 15.51062491-34.62252779 34.62066687l0 58.54544242c0 56.64150991 43.27676404 99.91827395 81.49870998 138.10485823 28.00808569 28.04344731 56.98767935 56.98767935 56.98767935 80.08053147 0 57.71351897-46.60073492 104.66042334-103.86386154 104.66042334-58.23277261 0-103.86386154-44.93875003-103.86386154-102.30609848 0-19.11190287-15.51062491-34.62066687-34.62252778-34.62066687s-34.62252779 15.51062491-34.62252779 34.62066687c0 94.58614765 77.65548439 171.54929313 173.10891711 171.54929313s173.10891711-78.00165383 173.10891711-173.90361799c0-51.82863831-39.29581591-91.08909258-77.27581422-129.069092-30.12046401-30.05160274-61.21057512-61.14171276-61.2105751-89.08093714l0-58.54544242C546.62252779 224.60199819000002 531.11190287 209.05787364000003 512 209.05787364000003z"  horiz-adv-x="1024" />

    
    <glyph glyph-name="zhongxinweizhi" unicode="&#58949;" d="M847.39836724 340.79031639000004l0.23049993-0.12974287L621.66284394-47.40499782999996l-1.4230281-0.93994422c-13.48908677-32.03951595-45.35883409-54.57469721-82.57010959-54.57469723-37.20713468 0-69.06583933 22.53518125-82.55906694 54.57469723l-1.41888725 0.93994422L227.72711 340.66057488c-98.83900057 169.72399571-40.191214 386.75158472 130.99031487 484.74035685 171.18567107 97.99291293 390.08624401 39.83511203 488.91006245-129.88474288C913.85279254 581.78577622 909.06611943 446.95011086 847.39836724 340.79031639000004zM537.67108743 651.15802892c-74.12165834 0-134.20213448-59.57668814-134.20213449-133.07171748 0-73.49088983 60.0804761-133.07447848 134.20213449-133.07447846s134.22007766 59.5835886 134.22007759 133.07447846C671.89116502 591.58134078 611.79274574 651.15802892 537.67108743 651.15802892z"  horiz-adv-x="1024" />

    
    <glyph glyph-name="fenxiang" unicode="&#58900;" d="M33.06184915 211.81549109000002c0-124.49145797 100.92154275-225.40392908 225.39485744-225.40392906 88.20672071 0 164.53971068 50.65581505 201.58259377 124.464243L677.13343023 72.63803115999997l-0.0777581-5.72043881c0-88.93117237 72.08607573-161.00428719 160.99910353-161.00428716 88.91432465 0 161.00039914 72.07181922 161.00039916 161.00428716 0 88.92728433-72.08607573 160.9952155-161.00039916 160.9952155-64.47740002 0-120.06958867-37.84638844-145.79341615-92.57027205l-211.78581224 37.27875109c2.23426283 12.71352521 3.38379281 25.83009867 3.38379281 39.19420294 0 58.84638466-22.56942217 112.41685029-59.47882044 152.53897175l195.83494003 195.85826696c17.6719289-6.66520507 36.82515969-10.29523311 56.83891687-10.29523312 88.91302778 0 160.99910354 72.06793115 160.99910356 160.99521552s-72.08607573 160.99910354-160.99910356 160.99910353-160.99910354-72.07181922-160.99910352-160.99910353c0-45.15828454 18.59984869-85.95431458 48.536895-115.20060592L374.13163966 405.25028231c-33.82497494 20.27943259-73.36520382 31.96524855-115.67493307 31.96524856C133.98339191 437.21034726 33.06184915 336.30306104 33.06184915 211.81549109000002L33.06184915 211.81549109000002 33.06184915 211.81549109000002z"  horiz-adv-x="1024" />

    


  </font>
</defs>
</svg>
